<?xml version="1.0" encoding="iso-8859-1"?>
<!-- Generator: Adobe Illustrator 19.0.0, SVG Export Plug-In . SVG Version: 6.00 Build 0)  -->
<svg version="1.1" id="Capa_1" xmlns="http://www.w3.org/2000/svg" xmlns:xlink="http://www.w3.org/1999/xlink" x="0px" y="0px"
	 viewBox="0 0 464 464" style="enable-background:new 0 0 464 464;" xml:space="preserve">
<path style="fill:#F072AE;" d="M232,80c44.183,0,80-35.817,80-80H152C152,44.183,187.817,80,232,80z"/>
<path style="fill:#F7AFD1;" d="M448.912,33.968L346.4,0.8c-1.591-0.521-3.254-0.791-4.928-0.8H312c0,44.183-35.817,80-80,80
	s-80-35.817-80-80h-29.472c-1.674,0.009-3.337,0.279-4.928,0.8L15.088,33.968C5.977,37.612,0.002,46.435,0,56.248V368h80v64h304v-64
	h80V56.248C463.998,46.435,458.023,37.612,448.912,33.968L448.912,33.968z"/>
<g>
	<path style="fill:#FF6243;" d="M8,368v24c0,4.418,3.582,8,8,8h64v-32H8z"/>
	<path style="fill:#FF6243;" d="M384,400h64c4.418,0,8-3.582,8-8v-24h-72V400z"/>
</g>
<path style="fill:#FF7956;" d="M88,456c0,4.418,3.582,8,8,8h272c4.418,0,8-3.582,8-8v-24H88V456z"/>
<path style="fill:#FF6243;" d="M384,243.84c-25.352,0-25.352,24.32-50.704,24.32s-25.352-24.32-50.704-24.32
	s-25.336,24.32-50.672,24.32s-25.312-24.32-50.624-24.32S156,268.16,130.64,268.16S105.32,243.84,80,243.84v-80
	c25.32,0,25.32,24.32,50.64,24.32s25.328-24.32,50.656-24.32s25.312,24.32,50.624,24.32s25.336-24.32,50.672-24.32
	s25.352,24.32,50.704,24.32s25.352-24.32,50.704-24.32V243.84z"/>
<path style="fill:#F490C0;" d="M384,120h16v248h-16V120z"/>
<path style="fill:#FF5023;" d="M384,368h16v32h-16V368z"/>
<path style="fill:#F490C0;" d="M64,120h16v248H64V120z"/>
<path style="fill:#FF5023;" d="M64,368h16v32H64V368z"/>
<g>
</g>
<g>
</g>
<g>
</g>
<g>
</g>
<g>
</g>
<g>
</g>
<g>
</g>
<g>
</g>
<g>
</g>
<g>
</g>
<g>
</g>
<g>
</g>
<g>
</g>
<g>
</g>
<g>
</g>
</svg>
