<?xml version="1.0" encoding="iso-8859-1"?>
<!-- Generator: Adobe Illustrator 19.0.0, SVG Export Plug-In . SVG Version: 6.00 Build 0)  -->
<svg version="1.1" id="Capa_1" xmlns="http://www.w3.org/2000/svg" xmlns:xlink="http://www.w3.org/1999/xlink" x="0px" y="0px"
	 viewBox="0 0 430.08 430.08" style="enable-background:new 0 0 430.08 430.08;" xml:space="preserve">
<path style="fill:#EA3457;" d="M184.735,256h238.519l0,0c0,22.622-18.338,40.96-40.96,40.96H47.787
	c-22.622,0-40.96-18.338-40.96-40.96l0,0h112.246"/>
<path style="fill:#602F75;" d="M382.293,303.787H47.787C21.437,303.787,0,282.349,0,256c0-3.77,3.057-6.827,6.827-6.827h112.247
	c3.77,0,6.827,3.057,6.827,6.827s-3.057,6.827-6.827,6.827H14.339c3.169,15.56,16.963,27.307,33.447,27.307h334.507
	c16.483,0,30.276-11.747,33.447-27.307H184.736c-3.77,0-6.827-3.057-6.827-6.827s3.057-6.827,6.827-6.827h238.517
	c3.77,0,6.827,3.057,6.827,6.827C430.08,282.349,408.643,303.787,382.293,303.787z"/>
<polyline style="fill:#FFFFFF;" points="119.074,256 40.96,256 40.96,23.893 389.12,23.893 389.12,256 184.735,256 "/>
<path style="fill:#602F75;" d="M389.12,262.827H184.736c-3.77,0-6.827-3.057-6.827-6.827s3.057-6.827,6.827-6.827h197.557V30.72
	H47.787v218.453h71.287c3.77,0,6.827,3.057,6.827,6.827s-3.057,6.827-6.827,6.827H40.96c-3.77,0-6.827-3.057-6.827-6.827V23.893
	c0-3.77,3.057-6.827,6.827-6.827h348.16c3.77,0,6.827,3.057,6.827,6.827V256C395.947,259.77,392.89,262.827,389.12,262.827z"/>
<g>
	<path style="fill:#00E7FF;" d="M71.68,75.093c-1.746,0-3.494-0.667-4.826-2c-2.666-2.666-2.666-6.987,0-9.653L83.92,46.374
		c2.666-2.666,6.987-2.666,9.653,0c2.666,2.666,2.666,6.987,0,9.653L76.506,73.093C75.174,74.426,73.426,75.093,71.68,75.093z"/>
	<path style="fill:#00E7FF;" d="M78.507,95.573c-1.746,0-3.494-0.667-4.826-2c-2.666-2.666-2.666-6.987,0-9.653l37.547-37.547
		c2.666-2.666,6.987-2.666,9.653,0c2.666,2.666,2.666,6.987,0,9.653L83.333,93.573C82,94.906,80.253,95.573,78.507,95.573z"/>
</g>
<path style="fill:#FFE600;" d="M334.566,406.187H170.607c-7.508,0-13.594-6.086-13.594-13.594V64.794
	c0-7.508,6.086-13.594,13.594-13.594h163.959c7.508,0,13.594,6.086,13.594,13.594v327.799
	C348.16,400.101,342.074,406.187,334.566,406.187z"/>
<path style="fill:#602F75;" d="M334.566,413.013H170.607c-11.261,0-20.42-9.16-20.42-20.42V64.794c0-11.261,9.16-20.42,20.42-20.42
	h163.959c11.261,0,20.42,9.16,20.42,20.42v327.799C354.987,403.854,345.827,413.013,334.566,413.013z M170.607,58.027
	c-3.731,0-6.767,3.036-6.767,6.767v327.799c0,3.731,3.036,6.767,6.767,6.767h163.959c3.731,0,6.767-3.036,6.767-6.767V64.794
	c0-3.731-3.036-6.767-6.767-6.767H170.607z"/>
<rect x="177.493" y="71.68" style="fill:#FFFFFF;" width="150.187" height="266.24"/>
<path style="fill:#602F75;" d="M327.68,344.747H177.493c-3.77,0-6.827-3.057-6.827-6.827V71.68c0-3.77,3.057-6.827,6.827-6.827
	H327.68c3.77,0,6.827,3.057,6.827,6.827v266.24C334.507,341.69,331.45,344.747,327.68,344.747z M184.32,331.093h136.533V78.507
	H184.32V331.093z"/>
<g>
	<circle style="fill:#EA3457;" cx="252.587" cy="372.053" r="13.653"/>
	<path style="fill:#EA3457;" d="M252.587,392.533c-11.293,0-20.48-9.187-20.48-20.48s9.187-20.48,20.48-20.48
		c11.293,0,20.48,9.187,20.48,20.48S263.88,392.533,252.587,392.533z M252.587,365.227c-3.763,0-6.827,3.063-6.827,6.827
		s3.063,6.827,6.827,6.827c3.763,0,6.827-3.063,6.827-6.827S256.35,365.227,252.587,365.227z"/>
</g>
<g>
	<path style="fill:#00E7FF;" d="M201.387,122.88c-1.746,0-3.494-0.667-4.826-2c-2.666-2.666-2.666-6.987,0-9.653l17.067-17.067
		c2.666-2.666,6.987-2.666,9.653,0s2.666,6.987,0,9.653l-17.067,17.067C204.88,122.213,203.133,122.88,201.387,122.88z"/>
	<path style="fill:#00E7FF;" d="M208.213,143.36c-1.746,0-3.494-0.667-4.826-2c-2.666-2.666-2.666-6.987,0-9.653l37.547-37.547
		c2.666-2.666,6.987-2.666,9.653,0c2.666,2.666,2.666,6.987,0,9.653L213.04,141.36C211.707,142.693,209.959,143.36,208.213,143.36z"
		/>
</g>
<g>
</g>
<g>
</g>
<g>
</g>
<g>
</g>
<g>
</g>
<g>
</g>
<g>
</g>
<g>
</g>
<g>
</g>
<g>
</g>
<g>
</g>
<g>
</g>
<g>
</g>
<g>
</g>
<g>
</g>
</svg>
