<?xml version="1.0" encoding="iso-8859-1"?>
<!-- Generator: Adobe Illustrator 19.0.0, SVG Export Plug-In . SVG Version: 6.00 Build 0)  -->
<svg version="1.1" id="Capa_1" xmlns="http://www.w3.org/2000/svg" xmlns:xlink="http://www.w3.org/1999/xlink" x="0px" y="0px"
	 viewBox="0 0 512.001 512.001" style="enable-background:new 0 0 512.001 512.001;" xml:space="preserve">
<path style="fill:#FF80AB;" d="M439.179,192.688c0,38.918-12.012,75.033-32.532,104.842c-9.199,13.363-20.11,25.465-32.412,35.985
	c9.179-18.198,14.354-38.758,14.354-60.539v-35.274c0-37.166-15.065-70.819-39.419-95.173
	c-24.364-24.354-58.007-39.419-95.173-39.419c-74.333,0-134.591,60.259-134.591,134.591v35.274c0,21.781,5.175,42.341,14.354,60.539
	c-12.302-10.52-23.213-22.622-32.412-35.985c-20.52-29.809-32.532-65.924-32.532-104.842c0-102.27,82.911-185.181,185.181-185.181
	S439.179,90.418,439.179,192.688z"/>
<path style="fill:#FF4081;" d="M408.609,237.702v35.274c0,8.248-0.661,16.456-1.962,24.554
	c-9.199,13.363-20.11,25.465-32.412,35.985c9.179-18.198,14.354-38.758,14.354-60.539v-35.274c0-37.166-15.065-70.819-39.419-95.173
	c-24.364-24.354-58.007-39.419-95.173-39.419c-74.333,0-134.591,60.259-134.591,134.591v35.274c0,21.781,5.175,42.341,14.354,60.539
	c-12.302-10.52-23.213-22.622-32.412-35.985c-1.301-8.098-1.962-16.306-1.962-24.554v-35.274c0-1.802,0.03-3.463,0.08-5.065
	c1.291-40.189,17.928-77.816,46.866-105.903c29.008-28.147,67.246-43.643,107.665-43.643c41.29,0,80.118,16.086,109.327,45.284
	c27.897,27.887,43.943,64.933,45.204,104.322C408.579,234.249,408.609,235.9,408.609,237.702z"/>
<path style="fill:#FDD8A8;" d="M388.59,237.702v35.274c0,23.203-5.876,45.044-16.216,64.093
	c-12.682,23.383-32.101,42.592-55.644,55.014c-18.728,9.89-40.079,15.485-62.731,15.485c-22.662,0-44.023-5.605-62.751-15.495
	c-23.533-12.422-42.942-31.621-55.624-55.004c-10.34-19.049-16.216-40.89-16.216-64.093v-35.274c0-1.461,0.02-2.923,0.07-4.374
	c2.312-72.311,61.65-130.217,134.521-130.217c37.166,0,70.809,15.065,95.173,39.419c23.393,23.393,38.217,55.374,39.348,90.809
	C388.57,234.789,388.59,236.241,388.59,237.702z"/>
<path style="fill:#FFC477;" d="M388.526,233.691c-0.004-0.117-0.002-0.235-0.006-0.353c-0.003,0-0.005-0.001-0.008-0.001
	c-1.129-35.431-15.945-67.411-39.34-90.808c-24.364-24.354-58.007-39.419-95.173-39.419c-72.868,0-132.203,57.91-134.513,130.216
	c-0.003,0-0.005,0.001-0.008,0.001c-0.004,0.123-0.002,0.247-0.006,0.369c-0.039,1.33-0.064,2.665-0.064,4.005v35.274
	c0,23.203,5.876,45.044,16.216,64.093c12.682,23.383,32.091,42.582,55.624,55.004c3.033-3.343,5.565-7.137,7.487-11.281
	c20.13-4.504,35.214-22.502,35.214-43.963c0-6.697-1.511-13.223-4.284-19.139c4.034-6.837,6.286-14.724,6.286-22.902
	c0-18.508-11.231-34.454-27.227-41.37c-4.685-19.869-22.562-34.704-43.843-34.704c-9.07,0-17.67,2.76-24.885,7.553
	c5.758-57.823,54.689-103.137,114.002-103.137c59.321,0,108.259,45.325,114.004,103.161c-7.219-4.809-15.832-7.577-24.917-7.577
	c-21.281,0-39.158,14.834-43.843,34.704c-16.006,6.917-27.227,22.862-27.227,41.37c0,8.178,2.242,16.066,6.286,22.902
	c-2.783,5.916-4.284,12.442-4.284,19.139c0,21.461,15.085,39.458,35.204,43.963c1.922,4.144,4.464,7.948,7.507,11.291
	c23.543-12.422,42.962-31.631,55.644-55.014c10.34-19.049,16.216-40.89,16.216-64.093v-35.274
	C388.59,236.36,388.565,235.024,388.526,233.691z"/>
<g>
	<circle style="fill:#40C4FF;" cx="464.204" cy="288.782" r="15.015"/>
	<circle style="fill:#40C4FF;" cx="31.782" cy="363.855" r="15.015"/>
</g>
<g>
	<circle style="fill:#00E5FF;" cx="478.718" cy="363.355" r="25.525"/>
	<circle style="fill:#00E5FF;" cx="33.283" cy="293.286" r="25.525"/>
	<path style="fill:#00E5FF;" d="M396.738,297.32c4.665,6.837,7.407,15.095,7.407,23.993c0,18.768-12.162,34.694-29.038,40.339
		c0.01,0.07,0.01,0.13,0.01,0.2c0,13.824-11.201,25.024-25.024,25.024s-25.024-11.201-25.024-25.024c0,0-1.912,0-3.774,0h-2.232
		c-13.823,0-25.024-11.201-25.024-25.024c0-8.408,4.144-15.835,10.51-20.38c-7.477-4.324-12.512-12.402-12.512-21.661
		c0-13.823,11.201-25.024,25.024-25.024c0,0,1.001-3.914,1.001-6.006c0-13.823,11.201-25.024,25.024-25.024
		c11.471,0,21.141,7.728,24.094,18.258c3.984-2.683,8.779-4.244,13.944-4.244c13.823,0,25.024,11.201,25.024,25.024v0.16
		C406.097,285.789,402.434,292.766,396.738,297.32z"/>
	<path style="fill:#00E5FF;" d="M213.929,336.829c0,13.823-11.211,25.024-25.024,25.024h-2.232c-1.862,0-3.774,0-3.774,0
		c0,13.824-11.211,25.024-25.024,25.024c-13.824,0-25.024-11.201-25.024-25.024v-0.2c-16.866-5.646-29.028-21.571-29.028-40.339
		c0-8.899,2.733-17.157,7.407-23.993c-5.696-4.554-9.359-11.531-9.409-19.379v-0.17c0-13.824,11.201-25.024,25.024-25.024
		c5.165,0,9.96,1.562,13.944,4.244c2.953-10.53,12.612-18.258,24.094-18.258c13.813,0,25.024,11.201,25.024,25.024
		c0,2.092,1.001,6.006,1.001,6.006c13.813,0,25.024,11.201,25.024,25.024c0,9.259-5.035,17.337-12.512,21.661
		C209.775,320.993,213.929,328.421,213.929,336.829z"/>
</g>
<path style="fill:#40C4FF;" d="M396.738,297.32c4.665,6.837,7.407,15.095,7.407,23.993c0,18.768-12.162,34.694-29.038,40.339
	c0.01,0.07,0.01,0.13,0.01,0.2c0,13.824-11.201,25.024-25.024,25.024s-25.024-11.201-25.024-25.024c0,0-1.912,0-3.774,0v-25.655
	c0-34.424,28.007-62.431,62.431-62.431c7.898,0,15.465,1.471,22.422,4.164C406.097,285.789,402.434,292.766,396.738,297.32z"/>
<path style="fill:#FDD8A8;" d="M383.723,293.787L383.723,293.787c-23.423,0-42.41,18.988-42.41,42.41v40.235l-32.26,64.159V512
	h62.709v-49.297l54.372-62.347v-64.159C426.134,312.774,407.146,293.787,383.723,293.787z"/>
<path style="fill:#40C4FF;" d="M186.673,336.198v25.655c-1.862,0-3.774,0-3.774,0c0,13.824-11.211,25.024-25.024,25.024
	c-13.824,0-25.024-11.201-25.024-25.024v-0.2c-16.866-5.646-29.028-21.571-29.028-40.339c0-8.899,2.733-17.157,7.407-23.993
	c-5.696-4.554-9.359-11.531-9.409-19.379c6.967-2.703,14.524-4.174,22.422-4.174C158.665,273.767,186.673,301.775,186.673,336.198z"
	/>
<path style="fill:#FDD8A8;" d="M166.651,376.433v-40.235c0-23.422-18.988-42.41-42.41-42.41l0,0c-23.423,0-42.41,18.988-42.41,42.41
	v64.159l54.372,62.347V512h62.709v-71.409L166.651,376.433z"/>
<g>
	<path style="fill:#FFC477;" d="M100.882,389.345v-64.159c0-11.697,4.737-22.288,12.395-29.961
		c-18.107,4.834-31.447,21.342-31.447,40.972v64.159l54.372,62.347V512h19.052v-60.308L100.882,389.345z"/>
	<path style="fill:#FFC477;" d="M407.082,389.345v-64.159c0-11.697-4.737-22.288-12.395-29.961
		c18.107,4.834,31.447,21.342,31.447,40.972v64.159l-54.372,62.347V512H352.71v-60.308L407.082,389.345z"/>
</g>
<path d="M464.204,311.304c12.419,0,22.522-10.104,22.522-22.522s-10.103-22.522-22.522-22.522
	c-12.419,0-22.522,10.104-22.522,22.522S451.785,311.304,464.204,311.304z M464.204,281.275c4.14,0,7.507,3.367,7.507,7.507
	s-3.367,7.507-7.507,7.507c-4.14,0-7.507-3.367-7.507-7.507S460.064,281.275,464.204,281.275z"/>
<path d="M31.782,341.333c-12.419,0-22.522,10.104-22.522,22.522c0,12.418,10.103,22.522,22.522,22.522s22.522-10.104,22.522-22.522
	C54.304,351.437,44.201,341.333,31.782,341.333z M31.782,371.363c-4.14,0-7.507-3.367-7.507-7.507c0-4.14,3.367-7.507,7.507-7.507
	s7.507,3.367,7.507,7.507C39.289,367.995,35.922,371.363,31.782,371.363z"/>
<path d="M478.718,330.323c-18.214,0-33.032,14.818-33.032,33.032c0,18.214,14.818,33.032,33.032,33.032s33.032-14.818,33.032-33.032
	C511.75,345.141,496.932,330.323,478.718,330.323z M478.718,381.372c-9.935,0-18.018-8.083-18.018-18.018
	s8.083-18.018,18.018-18.018s18.018,8.083,18.018,18.018S488.653,381.372,478.718,381.372z"/>
<path d="M33.283,260.254c-18.214,0-33.032,14.818-33.032,33.032s14.818,33.032,33.032,33.032s33.032-14.818,33.032-33.032
	S51.497,260.254,33.283,260.254z M33.283,311.304c-9.935,0-18.018-8.083-18.018-18.018s8.083-18.018,18.018-18.018
	s18.018,8.083,18.018,18.018S43.218,311.304,33.283,311.304z"/>
<rect x="292.036" y="194.19" width="47.046" height="15.015"/>
<rect x="168.915" y="194.19" width="47.046" height="15.015"/>
<rect x="239.484" y="317.31" width="30.029" height="15.015"/>
<polygon points="251.496,215.711 236.481,215.711 236.481,281.275 276.02,281.275 276.02,266.26 251.496,266.26 "/>
<path d="M415.534,297.76c20.405-31.274,31.152-67.44,31.152-105.072C446.687,86.439,360.247,0,253.999,0S61.31,86.439,61.31,192.688
	c0,37.621,10.744,73.778,31.144,105.05c-11.068,9.164-18.132,23.001-18.132,38.461v66.971l54.372,62.347V512h15.015v-52.111
	l-54.372-62.347v-61.345c0-19.246,15.657-34.903,34.903-34.903s34.903,15.658,34.903,34.903v42.016l32.261,64.16v69.628h15.015
	v-73.189L185.697,397.6c20.821,11.464,44.095,17.476,68.302,17.476c24.006,0,47.483-6.097,68.272-17.482l-20.725,41.217V512h15.015
	v-69.628l32.26-64.16v-42.016c0-19.246,15.657-34.903,34.903-34.903s34.903,15.658,34.903,34.903v61.345l-54.372,62.347v52.111
	h15.015v-46.483l54.372-62.347v-66.971C433.641,320.751,426.587,306.924,415.534,297.76z M431.672,192.688
	c0,27.803-6.361,54.735-18.565,79.173c-1.843-9.996-8.266-18.402-17.01-22.955v-11.204c0-37.959-14.78-73.644-41.619-100.483
	c-23.179-23.169-52.946-37.341-85.068-40.785c16.664-25.875,39.568-46.817,66.93-61.147
	C392.96,65.028,431.672,124.417,431.672,192.688z M253.999,15.015c23.11,0,45.201,4.439,65.472,12.502
	c-27.772,16.672-50.761,39.941-67.191,68.108c-77.564,0.927-140.38,64.299-140.38,142.078v11.188
	c-8.744,4.543-15.173,12.936-17.03,22.92c-12.191-24.426-18.545-51.34-18.545-79.122C76.325,94.718,156.029,15.015,253.999,15.015z
	 M333.805,336.197v35.67c-22.534,18.203-50.736,28.194-79.807,28.194c-27.5,0-53.666-8.636-75.673-24.975l-2.355,3.171l-1.813-3.605
	v-38.454c0-27.525-22.393-49.918-49.918-49.918c-4.066,0-8.016,0.5-11.803,1.422c-1.997-2.893-3.11-6.353-3.11-9.931
	c0-9.658,7.859-17.517,17.517-17.517c3.499,0,6.871,1.024,9.75,2.964l8.617,5.804l2.806-10.003
	c2.109-7.524,9.045-12.779,16.865-12.779c9.537,0,17.304,7.664,17.499,17.156c-13.815,3.756-24.008,16.402-24.008,31.392h15.015
	c0-9.658,7.859-17.517,17.517-17.517h0.003c9.658,0,17.517,7.859,17.517,17.517c0,4.85-2.043,9.439-5.497,12.711
	c-5.779-2.773-12.424-3.881-19.217-2.786l2.396,14.823c5.325-0.86,10.486,0.793,14.275,4.078c0.044,0.038,0.089,0.075,0.132,0.114
	c0.365,0.323,0.716,0.665,1.054,1.018c0.096,0.102,0.189,0.206,0.283,0.309c0.237,0.26,0.465,0.531,0.688,0.805
	c0.156,0.194,0.308,0.39,0.455,0.591c0.183,0.248,0.36,0.501,0.532,0.761c0.132,0.2,0.261,0.402,0.385,0.608
	c0.18,0.299,0.352,0.605,0.515,0.916c0.122,0.232,0.234,0.469,0.345,0.708c0.116,0.248,0.226,0.499,0.33,0.755
	c0.093,0.226,0.184,0.453,0.268,0.683c0.136,0.377,0.26,0.761,0.371,1.15c0.041,0.143,0.082,0.286,0.119,0.43
	c0.124,0.481,0.231,0.971,0.315,1.47c0.161,0.951,0.249,1.919,0.249,2.897c0,9.658-7.859,17.517-17.517,17.517v15.015
	c17.938,0,32.532-14.593,32.532-32.532c0-1.752-0.146-3.487-0.423-5.192h0.003c-0.005-0.028-0.011-0.056-0.016-0.084
	c-0.079-0.477-0.167-0.951-0.267-1.422c-0.063-0.299-0.136-0.594-0.207-0.889c-0.038-0.159-0.074-0.319-0.115-0.477
	c-0.094-0.368-0.196-0.732-0.302-1.094c-0.017-0.057-0.034-0.115-0.051-0.172c-1.161-3.887-3.006-7.433-5.389-10.516
	c5.545-5.949,8.771-13.869,8.771-22.193c0-15.714-11.2-28.862-26.036-31.881c-0.455-17.546-14.87-31.682-32.524-31.682
	c-11.518,0-22.004,6.141-27.805,15.656c-3.251-1.077-6.674-1.632-10.162-1.64v-7.54c0-70.074,57.01-127.084,127.084-127.084
	c33.939,0,65.854,13.219,89.865,37.22c24.001,24.001,37.219,55.916,37.219,89.864v7.539c-3.499,0.004-6.932,0.561-10.193,1.641
	c-5.8-9.515-16.285-15.656-27.804-15.656c-17.657,0-32.073,14.139-32.521,31.681c-14.836,3.019-26.036,16.166-26.036,31.881
	c0,8.323,3.224,16.242,8.768,22.19c-2.397,3.101-4.249,6.672-5.409,10.584c-0.001,0.002-0.001,0.004-0.002,0.006
	c-0.123,0.414-0.239,0.832-0.346,1.254c-0.012,0.046-0.022,0.093-0.033,0.139c-0.167,0.674-0.314,1.357-0.439,2.05
	c-0.029,0.157-0.062,0.313-0.088,0.471c-0.009,0.052-0.021,0.102-0.029,0.154l0.006,0.001c-0.277,1.705-0.423,3.439-0.423,5.192
	c0,17.939,14.594,32.532,32.532,32.532v-15.015c-9.658,0-17.517-7.859-17.517-17.517c0-0.994,0.09-1.978,0.256-2.944
	c0.08-0.469,0.181-0.93,0.296-1.384c0.045-0.174,0.094-0.347,0.144-0.521c0.097-0.338,0.206-0.671,0.322-0.999
	c0.101-0.284,0.211-0.566,0.326-0.845c0.092-0.221,0.187-0.44,0.287-0.657c0.144-0.312,0.298-0.619,0.46-0.921
	c0.131-0.243,0.263-0.485,0.404-0.721c0.131-0.219,0.269-0.434,0.41-0.649c0.148-0.223,0.301-0.441,0.458-0.657
	c0.178-0.245,0.363-0.485,0.554-0.721c0.197-0.242,0.397-0.479,0.607-0.711c0.115-0.128,0.23-0.257,0.349-0.382
	c0.315-0.328,0.643-0.647,0.982-0.949c0.083-0.074,0.17-0.146,0.255-0.219c0.359-0.308,0.727-0.606,1.109-0.884
	c0.021-0.015,0.041-0.032,0.062-0.047c3.636-2.618,8.265-3.855,13.028-3.082l2.396-14.823c-6.793-1.094-13.438,0.013-19.216,2.784
	c-3.453-3.272-5.495-7.862-5.495-12.71c0-9.658,7.859-17.517,17.517-17.517s17.517,7.859,17.517,17.517h15.015
	c0-14.988-10.191-27.634-24.005-31.391c0.194-9.491,7.962-17.157,17.499-17.157c7.821,0,14.755,5.254,16.864,12.777l2.805,10.005
	l8.617-5.805c2.878-1.94,6.25-2.964,9.75-2.964c9.658,0,17.517,7.859,17.517,17.517c0,3.577-1.113,7.038-3.111,9.931
	c-3.788-0.922-7.739-1.422-11.806-1.422C356.198,286.28,333.805,308.672,333.805,336.197z"/>
<g>
	<path style="fill:#FFFFFF;" d="M114.232,145.067l-14.208-4.855c3.612-10.57,8.347-20.81,14.075-30.439l12.905,7.675
		C121.805,126.186,117.508,135.479,114.232,145.067z"/>
	<path style="fill:#FFFFFF;" d="M148.268,89.739l-10.757-10.475c12.47-12.805,26.83-23.406,42.682-31.509l6.835,13.368
		C172.635,68.482,159.594,78.109,148.268,89.739z M200.043,55.25l-5.504-13.969c18.947-7.466,38.953-11.252,59.46-11.252v15.015
		C235.383,45.044,217.231,48.478,200.043,55.25z"/>
	<path style="fill:#FFFFFF;" d="M367.353,98.19c-9.096-10.891-19.675-20.408-31.447-28.287l8.352-12.477
		c12.959,8.673,24.606,19.151,34.618,31.138L367.353,98.19z"/>
	<path style="fill:#FFFFFF;" d="M416.657,192.688h-15.015c0-18.616-3.434-36.769-10.207-53.956l13.97-5.505
		C412.872,152.175,416.657,172.181,416.657,192.688z M385.561,125.717c-2.329-4.555-4.929-9.045-7.728-13.344l12.583-8.192
		c3.083,4.736,5.947,9.682,8.512,14.701L385.561,125.717z"/>
	<path style="fill:#FFFFFF;" d="M403.612,336.197h-15.015c0-2.688-2.186-4.874-4.874-4.874s-4.874,2.187-4.874,4.874h-15.015
		c0-10.967,8.922-19.888,19.888-19.888C394.69,316.309,403.612,325.231,403.612,336.197z"/>
	<path style="fill:#FFFFFF;" d="M354.787,447.9l-11.316-9.869l26.316-30.175l11.316,9.869L354.787,447.9z M390.971,406.408
		l-11.316-9.869l10.791-12.372l11.316,9.869L390.971,406.408z"/>
	<path style="fill:#FFFFFF;" d="M119.367,378.87h-15.015v-14.077h15.015V378.87z M119.367,349.78h-15.015v-13.581
		c0-10.967,8.922-19.888,19.888-19.888v15.015c-2.688,0-4.874,2.187-4.874,4.874V349.78z"/>
	
		<rect x="133.351" y="418.282" transform="matrix(-0.4492 -0.8934 0.8934 -0.4492 -151.6168 758.108)" style="fill:#FFFFFF;" width="49.047" height="15.014"/>
</g>
<g>
</g>
<g>
</g>
<g>
</g>
<g>
</g>
<g>
</g>
<g>
</g>
<g>
</g>
<g>
</g>
<g>
</g>
<g>
</g>
<g>
</g>
<g>
</g>
<g>
</g>
<g>
</g>
<g>
</g>
</svg>
