<?xml version="1.0" encoding="iso-8859-1"?>
<!-- Generator: Adobe Illustrator 19.0.0, SVG Export Plug-In . SVG Version: 6.00 Build 0)  -->
<svg version="1.1" id="Capa_1" xmlns="http://www.w3.org/2000/svg" xmlns:xlink="http://www.w3.org/1999/xlink" x="0px" y="0px"
	 viewBox="0 0 512 512" style="enable-background:new 0 0 512 512;" xml:space="preserve">
<path style="fill:#E8EAE9;" d="M502.4,99.2L412.8,9.6C400-3.2,379.733-3.2,368,9.6L9.6,368c-12.8,12.8-12.8,33.067,0,44.8l89.6,89.6
	c12.8,12.8,33.067,12.8,44.8,0L502.4,144C515.2,131.2,515.2,110.933,502.4,99.2z"/>
<g>
	
		<rect x="101.723" y="463.497" transform="matrix(-0.7071 -0.7071 0.7071 -0.7071 -111.5589 902.1186)" style="fill:#CED6E0;" width="58.665" height="21.333"/>
	
		<rect x="177.782" y="386.564" transform="matrix(-0.7071 -0.7071 0.7071 -0.7071 72.6823 824.5674)" style="fill:#CED6E0;" width="58.665" height="21.333"/>
	
		<rect x="253.841" y="311.138" transform="matrix(-0.7071 -0.7071 0.7071 -0.7071 255.857 749.5878)" style="fill:#CED6E0;" width="58.665" height="21.333"/>
	
		<rect x="330.653" y="234.96" transform="matrix(-0.7071 -0.7071 0.7071 -0.7071 440.8492 673.8592)" style="fill:#CED6E0;" width="58.665" height="21.333"/>
	
		<rect x="405.954" y="158.778" transform="matrix(-0.7071 -0.7071 0.7071 -0.7071 623.2659 597.0542)" style="fill:#CED6E0;" width="58.665" height="21.333"/>
	
		<rect x="161.411" y="434.151" transform="matrix(-0.7071 -0.7071 0.7071 -0.7071 -10.7606 885.1785)" style="fill:#CED6E0;" width="33.07" height="21.333"/>
	
		<rect x="238.223" y="357.974" transform="matrix(-0.7071 -0.7071 0.7071 -0.7071 174.2316 809.4499)" style="fill:#CED6E0;" width="33.07" height="21.333"/>
	
		<rect x="313.532" y="281.799" transform="matrix(-0.7071 -0.7071 0.7071 -0.7071 356.6553 732.6619)" style="fill:#CED6E0;" width="33.07" height="21.333"/>
	
		<rect x="390.334" y="205.621" transform="matrix(-0.7071 -0.7071 0.7071 -0.7071 541.6304 656.9261)" style="fill:#CED6E0;" width="33.07" height="21.333"/>
	
		<rect x="466.396" y="130.204" transform="matrix(-0.7071 -0.7071 0.7071 -0.7071 724.8037 581.9641)" style="fill:#CED6E0;" width="33.07" height="21.333"/>
</g>
<path style="fill:#FFD15C;" d="M483.2,348.8c-57.6-57.6-192,76.8-134.4,134.4L512,512L483.2,348.8z"/>
<path style="fill:#415A6B;" d="M501.333,453.333l10.667,57.6l-58.667-9.6C457.6,477.867,477.867,457.6,501.333,453.333z"/>
<path style="fill:#F05540;" d="M132.267,179.2l263.467,263.467c-3.2-12.8,0-26.667,9.6-36.267s24.533-13.867,37.333-10.667
	L179.2,132.267L132.267,179.2z"/>
<g>
	<path style="fill:#F3705A;" d="M88.533,222.933L348.8,483.2c-1.067-10.667,3.2-22.4,10.667-30.933c9.6-9.6,23.467-12.8,36.267-9.6
		L132.267,179.2L88.533,222.933z"/>
	<path style="fill:#F3705A;" d="M179.2,132.267l263.467,263.467c-3.2-12.8,0-26.667,9.6-36.267
		c8.533-8.533,19.2-11.733,30.933-10.667L222.933,88.533L179.2,132.267z"/>
</g>
<rect x="119.339" y="47.381" transform="matrix(-0.7071 -0.7071 0.7071 -0.7071 142.2401 343.5485)" style="fill:#F3F3F3;" width="45.866" height="189.868"/>
<path style="fill:#8AD7F8;" d="M144,9.6c-12.8-12.8-34.133-12.8-48,0L9.6,97.067c-12.8,12.8-12.8,34.133,0,48L64,198.4L198.4,64
	L144,9.6z"/>
<g>
</g>
<g>
</g>
<g>
</g>
<g>
</g>
<g>
</g>
<g>
</g>
<g>
</g>
<g>
</g>
<g>
</g>
<g>
</g>
<g>
</g>
<g>
</g>
<g>
</g>
<g>
</g>
<g>
</g>
</svg>
